<?xml version="1.0" encoding="UTF-8" standalone="no"?>
<!-- Created with Inkscape (http://www.inkscape.org/) -->

<svg
   width="41.900036mm"
   height="30.444717mm"
   viewBox="0 0 41.900036 30.444717"
   version="1.1"
   id="svg6279"
   xmlns="http://www.w3.org/2000/svg"
   xmlns:svg="http://www.w3.org/2000/svg">
  <defs
     id="defs6276" />
  <g
     id="layer1"
     transform="translate(-112.02337,-133.09623)">
    <path
       style="fill:none;fill-opacity:1;stroke:#000000;stroke-width:1.4;stroke-linecap:round;stroke-linejoin:round;stroke-dasharray:none;stroke-opacity:1;paint-order:stroke fill markers"
       d="m 112.73191,162.64694 c -0.0513,0.0605 -0.10267,0.1211 0.73269,-0.81631 0.83536,-0.9374 2.55712,-2.87243 4.55671,-6.37385 1.99958,-3.50141 4.27676,-8.56893 5.78467,-13.12041 1.50791,-4.55148 2.24646,-8.58673 3.0774,-8.53974 0.83094,0.047 1.75412,4.17609 3.01586,8.72762 1.26174,4.55153 2.86191,9.5252 5.50853,13.04433 2.64661,3.51912 6.33933,5.58367 9.48305,6.55982 3.14371,0.97616 5.73824,0.86403 8.33257,0.75192"
       id="path796" />
    <path
       style="fill:none;fill-opacity:1;stroke:#000000;stroke-width:1.4;stroke-linecap:round;stroke-linejoin:round;stroke-dasharray:none;stroke-opacity:1;paint-order:stroke fill markers"
       d="m 112.70379,162.72473 c 2.04951,0.0375 4.09876,0.0749 7.03126,-0.89172 2.9325,-0.96667 6.74831,-2.93736 9.79484,-6.45651 3.04653,-3.51915 5.32371,-8.58667 6.83162,-13.13815 1.50791,-4.55148 2.24646,-8.58674 3.0774,-8.53974 0.83094,0.047 1.75412,4.17609 3.01586,8.72762 1.26174,4.55153 2.86191,9.5252 4.70915,13.0069 1.84723,3.48169 3.94103,5.47108 6.03511,7.46072 0,0 -0.0129,-0.13025 -0.0129,-0.13025"
       id="path796-8" />
  </g>
</svg>
