<?xml version="1.0" encoding="UTF-8" standalone="no"?>
<!-- Created with Inkscape (http://www.inkscape.org/) -->

<svg
   width="210.77402mm"
   height="31.003592mm"
   viewBox="0 0 210.77402 31.003592"
   version="1.1"
   id="svg5"
   xmlns="http://www.w3.org/2000/svg"
   xmlns:svg="http://www.w3.org/2000/svg">
  <defs
     id="defs2" />
  <g
     id="layer1"
     transform="translate(-15.864582,-99.474749)">
    <path
       style="fill:none;fill-opacity:1;stroke:#000000;stroke-width:1.4;stroke-linecap:round;stroke-linejoin:round;stroke-dasharray:none;stroke-opacity:1;paint-order:stroke fill markers"
       d="m 16.564582,129.77834 c 35.50997,-0.12221 71.01985,-0.24442 90.682748,-1.29092 19.66291,-1.04651 23.47872,-3.01721 26.52525,-6.53636 3.04653,-3.51915 5.32371,-8.58667 6.83162,-13.13815 1.50791,-4.55148 2.24646,-8.58673 3.0774,-8.53974 0.83094,0.047 1.75412,4.17609 3.01586,8.72762 1.26174,4.55153 2.86191,9.5252 5.50853,13.04433 2.64661,3.51912 6.33933,5.58367 16.71007,6.56897 10.37073,0.9853 27.4188,0.89146 44.46703,0.79762"
       id="path796" />
    <path
       style="fill:none;fill-opacity:1;stroke:#000000;stroke-width:1.4;stroke-linecap:round;stroke-linejoin:round;stroke-dasharray:none;stroke-opacity:1;paint-order:stroke fill markers"
       d="m 81.181019,129.31368 c 18.156417,0 36.312661,0 47.298691,-0.9854 10.98604,-0.9854 14.80185,-2.95609 17.84838,-6.47524 3.04653,-3.51915 5.32371,-8.58667 6.83162,-13.13815 1.50791,-4.55148 2.24646,-8.58674 3.0774,-8.53974 0.83094,0.047 1.75412,4.17609 3.01586,8.72762 1.26174,4.55153 2.86191,9.5252 5.50853,13.04433 2.64661,3.51912 6.33933,5.58366 16.71007,6.56896 10.37073,0.9853 27.4188,0.89146 44.46703,0.79762"
       id="path796-8" />
    <text
       xml:space="preserve"
       style="font-size:25.4px;font-family:'System Font';-inkscape-font-specification:'System Font';fill:none;fill-opacity:1;stroke:#000000;stroke-width:0.8;stroke-linecap:round;stroke-linejoin:round;stroke-opacity:1;paint-order:stroke fill markers;font-weight:normal;font-style:normal;font-stretch:normal;font-variant:normal;stroke-dasharray:none"
       x="24.239304"
       y="122.75198"
       id="text1035"><tspan
         id="tspan1033"
         style="font-style:normal;font-variant:normal;font-weight:normal;font-stretch:normal;font-size:25.4px;font-family:'System Font';-inkscape-font-specification:'System Font';stroke-width:0.8;stroke-dasharray:none"
         x="24.239304"
         y="122.75198">Joseph </tspan></text>
    <text
       xml:space="preserve"
       style="font-size:25.4px;font-family:'System Font';-inkscape-font-specification:'System Font';fill:none;fill-opacity:1;stroke:#000000;stroke-width:0.8;stroke-linecap:round;stroke-linejoin:round;stroke-opacity:1;paint-order:stroke fill markers;font-weight:normal;font-style:normal;font-stretch:normal;font-variant:normal;stroke-dasharray:none"
       x="167.46007"
       y="123.16859"
       id="text1035-6"><tspan
         id="tspan1033-0"
         style="font-style:normal;font-variant:normal;font-weight:normal;font-stretch:normal;font-size:25.4px;font-family:'System Font';-inkscape-font-specification:'System Font';stroke-width:0.8;stroke-dasharray:none"
         x="167.46007"
         y="123.16859">arch</tspan></text>
  </g>
</svg>
